<?xml version="1.0" encoding="UTF-8"?>
<!-- Created with Inkscape (http://www.inkscape.org/) -->
<svg width="623.59" height="405.58" version="1.1" viewBox="0 0 164.99 107.31" xmlns="http://www.w3.org/2000/svg" xmlns:cc="http://creativecommons.org/ns#" xmlns:dc="http://purl.org/dc/elements/1.1/" xmlns:rdf="http://www.w3.org/1999/02/22-rdf-syntax-ns#">
 <metadata>
  <rdf:RDF>
   <cc:Work rdf:about="">
    <dc:format>image/svg+xml</dc:format>
    <dc:type rdf:resource="http://purl.org/dc/dcmitype/StillImage"/>
    <dc:title/>
   </cc:Work>
  </rdf:RDF>
 </metadata>
 <g transform="translate(-.35454 -188.97)">
  <g transform="matrix(.26458 0 0 .26458 -140.75 186.24)">
   <rect transform="matrix(.86603 -.5 0 1 0 0)" x="712.68" y="415.74" width="98.15" height="240" fill="#009ddc" opacity=".9"/>
   <path d="m533.32 152.83v98.148l83.875 48.426 85-49.074z" fill="#009b72" opacity=".8"/>
  </g>
  <rect transform="matrix(.86603 -.5 0 1 0 0)" x="73.503" y="238.71" width="25.969" height="63.5" fill="#009ddc" opacity=".9"/>
  <g transform="matrix(.26458 0 0 .26458 -140.75 186.77)">
   <rect transform="matrix(.86603 -.5 0 1 0 0)" x="1119.9" y="617.35" width="98.15" height="240" fill="#009ddc" opacity=".9"/>
   <rect transform="matrix(.5 .86603 -1 0 0 0)" x="9.6042" y="-1103" width="98.15" height="240" fill="#009b72" opacity=".8"/>
  </g>
  <text x="-1.6285918" y="296.27951" fill="#000000" font-family="jura" font-size="10.869px" letter-spacing="0px" stroke-width=".27172" word-spacing="0px" style="line-height:1.25" xml:space="preserve"><tspan x="-1.6285918" y="296.27951" font-family="jura" font-size="26.085px" font-weight="bold" stroke-width=".27172">CONSULTING</tspan></text>
 </g>
</svg>
